<?xml version="1.0" encoding="utf-8"?>
<!-- Generator: Adobe Illustrator 18.0.0, SVG Export Plug-In . SVG Version: 6.00 Build 0)  -->
<!DOCTYPE svg PUBLIC "-//W3C//DTD SVG 1.1//EN" "http://www.w3.org/Graphics/SVG/1.1/DTD/svg11.dtd">
<svg version="1.1" id="Layer_1" xmlns="http://www.w3.org/2000/svg" xmlns:xlink="http://www.w3.org/1999/xlink" x="0px" y="0px"
	 viewBox="0.2 -1.1 30 25" enable-background="new 0.2 -1.1 30 25" xml:space="preserve">
<circle display="none" fill="#C1F7DC" cx="14.7" cy="14.5" r="14.5"/>
<path display="none" fill="#D17990" d="M25.6,11.7c-0.6-2.4-2.2-4.3-4.8-4.3c-4.3,0-6,3.8-6,3.8s-1.3-2.5-4-3.5
	c-0.6-0.2-1.3-0.3-2.2-0.3c-2.5,0-4.3,1.9-4.8,4.3c-1.7,6.7,10.8,14,10.8,14S27.3,18.4,25.6,11.7z"/>
<path fill="#D17990" d="M23.5-1.1c-5.9,0-8.3,5.3-8.3,5.3S12.8-1.1,7-1.1c-3.5,0-6.7,2.3-6.7,7.6c0,6.8,15,17.4,15,17.4
	s15-10.5,15-17.4C30.2,1.2,26.9-1.1,23.5-1.1z"/>
</svg>
